<?xml version="1.0" encoding="UTF-8"?>
<svg version="1.1" xmlns="http://www.w3.org/2000/svg" width="980" height="980">
<path d="M0 0 C4.00574853 0.00020605 8.01149009 -0.00533413 12.01723528 -0.01005757 C19.84774013 -0.01832211 27.67823745 -0.02111054 35.5087463 -0.02166995 C41.88493672 -0.02214729 48.26112468 -0.02421287 54.63731432 -0.02737057 C72.77300607 -0.03616717 90.90869193 -0.04079173 109.04438582 -0.0400401 C110.50730556 -0.03998016 110.50730556 -0.03998016 111.99977922 -0.03991902 C113.46451631 -0.0398577 113.46451631 -0.0398577 114.95884404 -0.03979514 C130.756045 -0.03938937 146.55322204 -0.04894396 162.35041609 -0.06305739 C178.62775815 -0.07748324 194.90508859 -0.08432411 211.18243718 -0.08346361 C220.29786407 -0.08313368 229.41326592 -0.08578995 238.528687 -0.09664166 C246.2950271 -0.10582903 254.06133082 -0.10785551 261.82767406 -0.10113224 C265.7764991 -0.09790743 269.72525468 -0.09766012 273.67407274 -0.10648549 C320.65544274 -0.2046303 363.21519779 2.21117671 398.73513079 35.95788372 C431.2620239 69.81566444 432.64471428 113.44148103 432.6305145 157.75945497 C432.63030847 161.77949942 432.63584849 165.79953693 432.64057207 169.81957805 C432.64883663 177.67782137 432.65162503 185.53605719 432.65218445 193.39430449 C432.65266176 199.79243333 432.65472715 206.19055972 432.65788507 212.58868778 C432.66668139 230.78478271 432.67130623 248.98087178 432.6705546 267.17696885 C432.67049467 268.64476316 432.67049467 268.64476316 432.67043352 270.14220989 C432.6703722 271.61182636 432.6703722 271.61182636 432.67030964 273.11113205 C432.6699038 288.96397401 432.67946035 304.81679215 432.69357189 320.66962723 C432.70799416 337.00233505 432.71483882 353.33503131 432.71397811 369.66774565 C432.71364808 378.8149987 432.71630908 387.9622268 432.72715616 397.10947406 C432.73633873 404.90219314 432.7383738 412.69487596 432.73164674 420.48759816 C432.72841969 424.45047607 432.72818321 428.41328475 432.73699999 432.37615573 C432.7672505 446.94849725 432.65269666 461.47645556 431.61447954 476.02067363 C431.53956669 477.08522299 431.46465384 478.14977235 431.3874709 479.24658078 C428.77219204 511.52384091 414.65282113 541.37339619 389.92604876 562.47595012 C356.64758026 590.01102576 315.89064235 590.30391038 274.87105954 590.29076743 C270.85101508 590.2905614 266.83097757 590.29610142 262.81093645 590.300825 C254.95269313 590.30908956 247.09445732 590.31187796 239.23621001 590.31243738 C232.83808117 590.31291468 226.43995479 590.31498008 220.04182673 590.318138 C201.84573179 590.32693432 183.64964273 590.33155916 165.45354565 590.33080753 C164.47501611 590.33076757 163.49648657 590.33072762 162.48830462 590.33068645 C161.01868815 590.33062513 161.01868815 590.33062513 159.51938245 590.33056257 C143.66654049 590.33015673 127.81372235 590.33971328 111.96088728 590.35382482 C95.62817945 590.36824709 79.2954832 590.37509175 62.96276885 590.37423104 C53.8155158 590.37390101 44.6682877 590.37656201 35.52104044 590.38740909 C27.72832136 590.39659166 19.93563854 590.39862673 12.14291634 590.39189967 C8.18003843 590.38867262 4.21722975 590.38843614 0.25435877 590.39725292 C-46.37076028 590.4942207 -88.53037148 587.80840497 -123.76486921 554.33288372 C-156.26524048 520.50271003 -157.67449417 476.91647399 -157.66025293 432.6305145 C-157.66004688 428.62476597 -157.66558706 424.61902441 -157.6703105 420.61327922 C-157.67857504 412.78277437 -157.68136346 404.95227706 -157.68192288 397.12176821 C-157.68240022 390.74557779 -157.68446579 384.36938982 -157.6876235 377.99320018 C-157.6964201 359.85750844 -157.70104466 341.72182258 -157.70029303 323.58612868 C-157.70025307 322.61084886 -157.70021311 321.63556904 -157.70017195 320.63073528 C-157.70013107 319.65424389 -157.70009019 318.6777525 -157.70004807 317.67167047 C-157.6996423 301.87446951 -157.70919689 286.07729246 -157.72331031 270.28009841 C-157.73773617 254.00275636 -157.74457704 237.72542592 -157.74371654 221.44807732 C-157.74338661 212.33265043 -157.74604288 203.21724858 -157.75689459 194.1018275 C-157.76608196 186.3354874 -157.76810844 178.56918368 -157.76138517 170.80284044 C-157.75816036 166.8540154 -157.75791305 162.90525982 -157.76673841 158.95644176 C-157.79751138 144.20132781 -157.65414396 129.49344675 -156.64031172 114.76482952 C-156.56487518 113.65223727 -156.48943865 112.53964501 -156.41171616 111.39333785 C-154.23886999 83.44055394 -143.53205526 57.73070354 -124.51486921 37.14538372 C-123.87162703 36.42093059 -123.22838484 35.69647747 -122.56565046 34.95007122 C-99.142513 9.85022326 -65.34810874 1.76956034 -32.32177019 0.24099314 C-21.55640312 -0.12569973 -10.77079422 -0.00346361 0 0 Z " fill="#0066C8" transform="translate(352.51486921310425,194.85461628437042)"/>
<path d="M0 0 C1.00675781 0.2784375 2.01351562 0.556875 3.05078125 0.84375 C23.31777714 6.94224941 41.69825915 20.22308618 51.89379883 38.83837891 C55.15023332 45.02697968 57.74054212 51.38237831 60 58 C60.29519531 58.82113281 60.59039063 59.64226562 60.89453125 60.48828125 C64.5855779 71.01594632 65.28239729 80.73805262 65.22705078 91.80102539 C65.22648584 93.38853956 65.22680484 94.97605425 65.22793579 96.56356812 C65.22850707 100.85013493 65.21678926 105.13658867 65.20278788 109.42312932 C65.19024296 113.91142906 65.18910706 118.3997317 65.18673706 122.88804626 C65.18053332 131.37697876 65.16413752 139.86585944 65.14403808 148.35476917 C65.11745328 159.83312885 65.1066975 171.3115028 65.09503365 182.78988552 C65.07625609 200.85996246 65.03640305 218.92993007 65 237 C41.24 237 17.48 237 -7 237 C-7.03738281 227.00976562 -7.07476563 217.01953125 -7.11328125 206.7265625 C-7.14356248 200.39191329 -7.17459025 194.05728226 -7.20898438 187.72265625 C-7.26341952 177.67140363 -7.31483474 167.62020147 -7.34643555 157.56884766 C-7.36946696 150.24765177 -7.40292211 142.92658893 -7.44870156 135.60549867 C-7.4725647 131.73188922 -7.49133858 127.85841096 -7.49761391 123.98472977 C-7.50369625 120.33209282 -7.52380836 116.67979126 -7.55427551 113.0272789 C-7.56714054 111.06115379 -7.56549445 109.09495013 -7.5632782 107.12878418 C-7.68239357 95.8070838 -9.94931364 86.07604551 -17 77 C-19.81692691 74.35695747 -22.79254197 72.14431183 -26 70 C-27.2065625 69.13375 -27.2065625 69.13375 -28.4375 68.25 C-40.58316834 62.32528374 -55.43237835 62.14509539 -68.32421875 65.9609375 C-80.20642014 70.57504782 -88.47450336 78.6041391 -94 90 C-97.38431396 99.30574135 -98.58742804 107.94659609 -98.54589844 117.79833984 C-98.56140495 119.74724373 -98.56140495 119.74724373 -98.57722473 121.73551941 C-98.60474613 125.24912855 -98.60849706 128.76238325 -98.60750484 132.27608442 C-98.61066356 135.96633029 -98.63634231 139.65642325 -98.65948486 143.34658813 C-98.6998243 150.3124408 -98.72033323 157.27820038 -98.73345876 164.24415171 C-98.75239415 173.67275753 -98.80248824 183.10119676 -98.85070229 192.52968979 C-98.92569408 207.35311774 -98.95950927 222.1763446 -99 237 C-122.43 237 -145.86 237 -170 237 C-170 159.12 -170 81.24 -170 1 C-147.89 1 -125.78 1 -103 1 C-102.67 11.89 -102.34 22.78 -102 34 C-98.535 30.04 -98.535 30.04 -95 26 C-71.90535255 0.43092604 -32.91418616 -9.87851383 0 0 Z " fill="#FDFDFE" transform="translate(602,430)"/>
<path d="M0 0 C23.76 0 47.52 0 72 0 C72 77.55 72 155.1 72 235 C48.24 235 24.48 235 0 235 C0 157.45 0 79.9 0 0 Z " fill="#FEFEFE" transform="translate(319,432)"/>
<path d="M0 0 C10.19144659 6.52316378 16.5467666 15.52914862 19.8125 27.25 C21.10381626 39.51750444 18.80100529 51.22637434 11.43359375 61.2578125 C6.00316086 67.93135653 0.75528931 71.84047468 -7.1875 75.25 C-8.29351562 75.80107422 -8.29351562 75.80107422 -9.421875 76.36328125 C-18.59076531 79.30302433 -31.19903805 78.35502337 -39.90234375 74.5078125 C-51.4825143 68.13376991 -58.6693308 58.86978665 -62.9375 46.5 C-65.82110356 36.16972791 -64.63084098 26.18885379 -59.8984375 16.65234375 C-53.78302232 5.81138048 -45.65907056 -0.87728749 -33.80078125 -4.8984375 C-21.8833012 -7.70709766 -10.54247595 -5.92024926 0 0 Z " fill="#FCFDFE" transform="translate(377.1875,318.75)"/>
</svg>
